<?xml version="1.0" encoding="utf-8"?>
<!-- Generator: Adobe Illustrator 21.0.2, SVG Export Plug-In . SVG Version: 6.00 Build 0)  -->
<svg version="1.1" id="Слой_1" xmlns="http://www.w3.org/2000/svg" xmlns:xlink="http://www.w3.org/1999/xlink" x="0px" y="0px"
	 viewBox="0 0 176 52" style="enable-background:new 0 0 176 52;" xml:space="preserve">
<style type="text/css">
	.st0{fill:#FFFFFF;}
</style>
<g>
	<path class="st0" d="M72.2,27.7h-4.6c0-0.4-0.1-0.7-0.3-1c-0.1-0.3-0.3-0.6-0.6-0.8c-0.2-0.2-0.5-0.4-0.9-0.5
		c-0.3-0.1-0.7-0.2-1.2-0.2c-0.8,0-1.4,0.2-1.9,0.6s-0.9,0.9-1.2,1.6s-0.4,1.5-0.4,2.5s0.1,1.9,0.4,2.6c0.3,0.7,0.7,1.2,1.2,1.6
		c0.5,0.3,1.2,0.5,1.9,0.5c0.4,0,0.8-0.1,1.1-0.2c0.3-0.1,0.6-0.3,0.9-0.5c0.2-0.2,0.4-0.4,0.6-0.7s0.3-0.6,0.3-1h4.6
		c-0.1,0.7-0.3,1.4-0.6,2.2c-0.3,0.7-0.8,1.4-1.5,2s-1.4,1.1-2.3,1.5s-2,0.6-3.2,0.6c-1.5,0-2.9-0.3-4.1-1c-1.2-0.7-2.2-1.6-2.9-2.9
		s-1.1-2.8-1.1-4.7c0-1.9,0.4-3.4,1.1-4.7c0.7-1.3,1.7-2.2,2.9-2.9s2.6-1,4.1-1c1.1,0,2,0.1,2.9,0.4s1.7,0.7,2.3,1.3
		c0.7,0.6,1.2,1.2,1.6,2C71.9,25.8,72.1,26.7,72.2,27.7z"/>
	<path class="st0" d="M77.8,38.4c-0.8,0-1.5-0.1-2.1-0.4c-0.6-0.3-1.1-0.7-1.4-1.2s-0.5-1.2-0.5-2.1c0-0.7,0.1-1.3,0.4-1.8
		c0.2-0.5,0.6-0.9,1-1.2c0.4-0.3,0.9-0.5,1.5-0.7s1.2-0.3,1.8-0.3c0.7-0.1,1.3-0.1,1.7-0.2c0.4-0.1,0.7-0.2,0.9-0.3
		c0.2-0.1,0.3-0.3,0.3-0.6l0,0c0-0.3-0.1-0.6-0.4-0.8c-0.3-0.2-0.6-0.3-1-0.3s-0.8,0.1-1,0.3s-0.4,0.5-0.5,0.9h-4.1
		c0.1-0.8,0.3-1.5,0.7-2.1c0.4-0.6,1.1-1.2,1.9-1.6s1.9-0.6,3.1-0.6c0.9,0,1.7,0.1,2.4,0.3c0.7,0.2,1.3,0.5,1.8,0.9s0.9,0.8,1.1,1.3
		c0.3,0.5,0.4,1,0.4,1.6v8.6h-4.2v-1.8h-0.1c-0.3,0.5-0.6,0.8-0.9,1.1c-0.4,0.3-0.8,0.5-1.2,0.6C78.9,38.3,78.4,38.4,77.8,38.4z
		 M79.3,35.5c0.3,0,0.7-0.1,1-0.2s0.5-0.3,0.7-0.6s0.3-0.6,0.3-1v-1c-0.1,0-0.2,0.1-0.4,0.1c-0.1,0-0.3,0.1-0.4,0.1S80.2,33,80,33
		s-0.3,0.1-0.5,0.1c-0.3,0.1-0.6,0.1-0.9,0.3c-0.2,0.1-0.4,0.3-0.5,0.4c-0.1,0.2-0.2,0.4-0.2,0.6c0,0.3,0.1,0.6,0.4,0.8
		C78.6,35.5,78.9,35.5,79.3,35.5z"/>
	<path class="st0" d="M92.4,21.5v16.7h-4.5V21.5H92.4z"/>
	<path class="st0" d="M94.7,38.2V25.6h4.5v12.5h-4.5V38.2z M97,24.3c-0.6,0-1.1-0.2-1.6-0.6c-0.4-0.4-0.7-0.9-0.7-1.5
		s0.2-1.1,0.7-1.5s1-0.6,1.6-0.6s1.1,0.2,1.6,0.6c0.4,0.4,0.6,0.9,0.6,1.5s-0.2,1.1-0.6,1.5C98.1,24.1,97.6,24.3,97,24.3z"/>
	<path class="st0" d="M109,25.6v3.3h-8.4v-3.3H109z M102.2,38.2V25.3c0-1,0.2-1.9,0.6-2.6s0.9-1.2,1.6-1.5s1.5-0.5,2.4-0.5
		c0.6,0,1.1,0,1.7,0.1s0.9,0.2,1.2,0.2l-0.7,3.2c-0.2,0-0.4-0.1-0.6-0.1s-0.4,0-0.6,0c-0.4,0-0.7,0.1-0.9,0.3
		c-0.1,0.2-0.2,0.4-0.2,0.7v13.1H102.2z"/>
	<path class="st0" d="M116.4,38.4c-1.4,0-2.5-0.3-3.5-0.8s-1.7-1.3-2.2-2.3s-0.8-2.1-0.8-3.4c0-1.3,0.3-2.4,0.8-3.4s1.3-1.7,2.2-2.3
		c1-0.5,2.1-0.8,3.5-0.8s2.5,0.3,3.5,0.8s1.7,1.3,2.2,2.3s0.8,2.1,0.8,3.4c0,1.3-0.3,2.4-0.8,3.4s-1.3,1.7-2.2,2.3
		C119,38.1,117.8,38.4,116.4,38.4z M116.5,35.1c0.4,0,0.7-0.1,1-0.4c0.3-0.3,0.5-0.6,0.6-1.1s0.2-1,0.2-1.7c0-0.7-0.1-1.2-0.2-1.7
		c-0.2-0.5-0.4-0.8-0.6-1.1c-0.3-0.3-0.6-0.4-1-0.4s-0.7,0.1-1,0.4s-0.5,0.6-0.7,1.1s-0.2,1-0.2,1.7c0,0.7,0.1,1.2,0.2,1.7
		s0.4,0.8,0.7,1.1C115.7,35,116.1,35.1,116.5,35.1z"/>
	<path class="st0" d="M124.8,38.2V25.6h4.4V28h0.1c0.2-0.9,0.6-1.5,1.1-1.9s1.1-0.6,1.8-0.6c0.2,0,0.4,0,0.6,0
		c0.2,0,0.4,0.1,0.6,0.1v3.8c-0.2-0.1-0.5-0.1-0.8-0.2c-0.3,0-0.6-0.1-0.8-0.1c-0.4,0-0.8,0.1-1.2,0.3c-0.4,0.2-0.6,0.5-0.8,0.8
		c-0.2,0.4-0.3,0.8-0.3,1.3V38h-4.7V38.2z"/>
	<path class="st0" d="M139.2,31.1v7.1h-4.5V25.6h4.3V28h0.1c0.3-0.8,0.8-1.4,1.4-1.9c0.7-0.5,1.5-0.7,2.4-0.7s1.7,0.2,2.3,0.6
		c0.7,0.4,1.2,1,1.5,1.7s0.5,1.5,0.5,2.4v8h-4.5V31c0-0.6-0.2-1.1-0.5-1.5s-0.8-0.5-1.3-0.5c-0.4,0-0.7,0.1-1,0.2
		c-0.3,0.2-0.5,0.4-0.6,0.7C139.3,30.4,139.2,30.7,139.2,31.1z"/>
	<path class="st0" d="M149.6,38.2V25.6h4.5v12.5h-4.5V38.2z M151.8,24.3c-0.6,0-1.1-0.2-1.6-0.6c-0.4-0.4-0.7-0.9-0.7-1.5
		s0.2-1.1,0.7-1.5s1-0.6,1.6-0.6s1.1,0.2,1.6,0.6c0.4,0.4,0.6,0.9,0.6,1.5s-0.2,1.1-0.6,1.5C153,24.1,152.5,24.3,151.8,24.3z"/>
	<path class="st0" d="M159.9,38.4c-0.8,0-1.5-0.1-2.1-0.4s-1.1-0.7-1.4-1.2s-0.5-1.2-0.5-2.1c0-0.7,0.1-1.3,0.4-1.8
		c0.2-0.5,0.6-0.9,1-1.2c0.4-0.3,0.9-0.5,1.5-0.7s1.2-0.3,1.8-0.3c0.7-0.1,1.3-0.1,1.7-0.2s0.7-0.2,0.9-0.3c0.2-0.1,0.3-0.3,0.3-0.6
		l0,0c0-0.3-0.1-0.6-0.4-0.8c-0.3-0.2-0.6-0.3-1-0.3s-0.8,0.1-1,0.3s-0.4,0.5-0.5,0.9h-4.1c0.1-0.8,0.3-1.5,0.7-2.1s1.1-1.2,1.9-1.6
		c0.8-0.4,1.9-0.6,3.1-0.6c0.9,0,1.7,0.1,2.4,0.3c0.7,0.2,1.3,0.5,1.8,0.9s0.9,0.8,1.1,1.3c0.3,0.5,0.4,1,0.4,1.6v8.6h-4.2v-1.8
		h-0.1c-0.3,0.5-0.6,0.8-0.9,1.1c-0.4,0.3-0.8,0.5-1.2,0.6C160.9,38.3,160.4,38.4,159.9,38.4z M161.3,35.5c0.3,0,0.7-0.1,1-0.2
		c0.3-0.1,0.5-0.3,0.7-0.6s0.3-0.6,0.3-1v-1c-0.1,0-0.2,0.1-0.4,0.1c-0.1,0-0.3,0.1-0.4,0.1c-0.2,0-0.3,0.1-0.5,0.1
		s-0.3,0.1-0.5,0.1c-0.3,0.1-0.6,0.1-0.9,0.3c-0.2,0.1-0.4,0.3-0.5,0.4s-0.2,0.4-0.2,0.6c0,0.3,0.1,0.6,0.4,0.8
		C160.7,35.5,161,35.5,161.3,35.5z"/>
</g>
<g transform="translate(0.000000,1280.000000) scale(0.100000,-0.100000)">
	<path class="st0" d="M79.8,12785.1c0.3-1.6-0.2-4.3-1.4-7.6l-0.8-2.3l0.8-1.2c0.5-0.6,1-1.2,1.3-1.2c1,0,1.4-0.8,2.1-4.4
		c0.5-2.1,0.9-4.1,1-4.3c0.4-0.7,0.4-1.4,0.5-5.7c0.1-3.3-0.1-4.2-1.4-9.4c-1.3-4.9-1.5-6.1-1.4-8c0.4-4.5,0.3-4.9-2-9.6
		c-1.2-2.4-2.2-4.8-2.2-5.2c0-0.4-0.2-1-0.5-1.4c-1-1.1-4.9-9.4-5.9-12.4l-1-3l0.8-2.5c0.5-1.6,0.8-3.3,0.7-4.7v-2.2l3.2-3.2
		c1.8-1.7,3.9-3.7,4.8-4.3c1-0.8,1.5-1.5,1.5-2c0-1.4,0.4-2.3,1.1-2.5c0.8-0.2,3-3.1,4.4-6c0.6-1.2,1.4-2.5,1.9-3
		c0.5-0.6,0.8-1.4,1-3.2c0.1-1.3,0.5-2.9,0.9-3.5c0.5-0.8,0.7-2,0.7-3.3c0-1.2,0.2-2.5,0.4-3.1c0.4-0.8,0.3-1.3-0.4-2.9
		c-0.5-1.1-1.1-3.3-1.4-5.2c-0.5-3.1-0.5-3.4,0.2-6.8c0.5-2,1.2-4.3,1.7-5.3c2-3.7,2.2-7.7,0.6-9.9c-0.3-0.4-0.5-1.1-0.5-1.5
		c0-1.2,4.2-6.5,7.6-9.7c2.4-2.3,3.3-3.3,4.7-6.1c1.6-3.2,2-3.5,5.5-6.4c4-3.2,5.7-5.5,5.8-8c0-1.8,0.6-2.7,1.6-2.4
		c1,0.3,2.2-1.2,2.1-2.7c0-0.5,0.2-1.8,0.5-2.7c0.5-1.7,0.5-1.9-0.9-5.5c-0.8-2.1-1.4-3.9-1.3-4c0.1-0.2,0.6-0.3,1.3-0.3
		c0.8,0,1.1,0.2,1.1,0.7c0,1,0.8,1.2,2.9,0.4c1.5-0.5,2.1-1,3-2.3c1.4-2.3,3.6-4.1,4.5-3.8c0.5,0.2,1.4-0.4,3.4-2
		c2.2-1.8,3-2.3,3.8-2.2c0.8,0.1,1,0.3,1,1c0,0.6,0.3,1,0.7,1.1c1.2,0.4,1.2,1.5,0,2.4c-1.3,1.1-1.4,2.5-0.3,3.1s1.1,1.3-0.1,1.9
		c-0.6,0.4-0.8,0.6-0.6,1.1c0.2,0.4,0.3,1.4,0.3,2.3c0,1.5,0.1,1.7,0.7,1.6c1-0.1,1.6,0.4,1.6,1.2c0,0.4,0.3,0.7,0.6,0.7
		c0.8,0,3.9-2.4,4.3-3.3c0.2-0.5,0.5-0.6,0.8-0.5c0.3,0.1,0.5,0,0.5-0.2s0.4-0.4,0.8-0.4c0.5,0,1.4-0.4,2-0.7c0.7-0.5,1.5-0.6,2-0.5
		c1,0.3,2.5,2.4,2.5,3.4c0,0.5,0.4,1,0.7,1.2c0.9,0.5,1,0.5,1.6-0.2c0.5-0.5,0.5-0.6-0.2-1.2l-0.8-0.6l1-0.6c0.6-0.4,1.3-0.5,2-0.4
		c1,0.2,1.2,0.1,1.1-0.5c-0.1-0.8,0.4-0.8,3.4-0.3c0.9,0.1,1.5,0.1,1.4,0c-0.5-0.5,0.9-1.6,2-1.6c0.5,0,1.2-0.2,1.3-0.4
		c0.2-0.2-0.2-0.4-0.8-0.4c-1.2,0-9.3,1.7-10.1,2.2c-0.4,0.2-1.1,0.2-1.9-0.2c-2.5-0.8-3.9-1-4.8-0.5c-1.5,1-2.6,1-4.1,0.1
		c-0.7-0.5-1.8-0.9-2.4-0.9c-0.8,0-1.2-0.2-1.4-1c-0.2-0.5-0.7-1.4-1.2-1.8c-0.7-0.8-0.7-0.9-0.2-1.8c0.4-0.5,0.9-0.9,1.3-0.9
		c2,0,3-2.3,1.7-4.2c-0.9-1.4-0.3-2.4,1.8-3.1c0.9-0.3,1.5-0.6,1.4-0.8c-0.4-0.5,0.2-1.8,0.8-1.8c0.9,0,2-2.3,2-4.1
		c0-2,1.8-6.2,2.9-6.7c0.4-0.2,0.8-0.5,0.9-0.8c0.2-0.4,0.5-0.5,1-0.5c0.8,0,1.4-0.5,0.8-0.9c-0.8-0.5-3.1,0.5-4.7,2.2
		c-1,1-2.4,2.2-3.2,2.6c-0.8,0.5-1.4,1-1.4,1.2c0,0.2-0.5,0.4-1,0.5c-0.6,0.1-1.5,0.6-2.2,1.2c-1.1,1-1.1,1-1,4.3
		c0,1.8-0.1,3.9-0.2,4.6c-0.3,1.2-0.4,1.3-2.1,1.5c-1.3,0.2-1.8,0-2-0.3c-0.1-0.3-0.4-0.5-0.6-0.5c-0.6,0-0.9-4.2-0.5-6.4
		c0.2-1,0.1-1.8-0.3-2.5c-0.5-1.1-0.7-4.1-0.3-5.2c0.2-0.4,0.6-0.7,1.1-0.9c0.6-0.3,1-1,1.8-3.5c1-3.2,1-3.3,0.4-6.1
		c-0.6-2.9-0.6-2.9,0.3-4.2c1.4-2.3,3.6-5.1,4.2-5.3c0.4-0.1,1.1-0.9,1.6-1.8c1.7-2.7,3.6-4.7,5.5-5.7c1.6-0.8,2-0.9,3-0.5
		c0.8,0.4,1.3,0.4,2,0c0.7-0.4,1-0.3,1.3,0.2c0.7,0.8,1.6,0.6,2.8-0.6c1.4-1.5,3.5-6.1,3.2-7c-0.1-0.4-0.3-1.3-0.4-1.9
		c-0.3-2.5-1.3-5.9-1.8-6.5c-0.8-0.9-1.2-0.9-2.3,0c-0.7,0.7-0.9,0.7-1.4,0.4c-0.9-0.7-1.7-2.4-1.4-3.1c0.1-0.3,0.6-0.7,1.2-1
		c0.9-0.4,0.9-0.5,0.3-1.2c-0.6-0.7-0.6-0.8,0.2-3.5c0.5-1.8,0.8-3.6,0.8-5.1c-0.1-2,0-2.3,1.1-3.3c0.6-0.6,1.1-1.4,1.1-1.6
		c0-0.7,1.3-2,1.5-1.6c0.9,0.9,6.4-5.2,8-8.8c0.8-1.6,1.3-2.3,2.4-2.8c1.4-0.6,1.4-0.9,2.1-3.5c0.7-2.9,1-3.3,3.8-5.4
		c1.5-1.2,2-2.1,2.2-4.3c0-0.7,0.4-1.8,0.7-2.4c0.7-1.2,3.3-2.6,4.7-2.6c0.6,0,1.3-0.6,2.7-3.2c2.4-4.2,4.1-5.7,6.9-6.7
		c2-0.7,2.3-0.9,3.2-2.7l1-2l-1.4-1.2c-1.3-1.2-1.4-1.3-1.1-3.3c0.2-2.3,0.4-2.3,3.5-4.1c1.5-0.8,2-0.9,2.3-0.5
		c0.3,0.4,0.6,0.4,2.1-0.4c2.2-1,2.8-2.5,1.9-4.5c-0.3-0.6-0.8-2.7-1.2-4.4l-0.6-3.3l1.3-1.4c1.2-1.3,1.2-1.4,0.8-2.6
		c-0.6-1.7-0.6-3,0-4.7c0.5-1.4,0.5-1.5-0.1-3.1c-1.2-2.7-1.4-3.9-0.6-4.9c0.5-0.6,0.9-0.9,1.8-0.9c1.6,0,3-1.2,3.9-3.3
		c1.1-2.4,1.5-2.6,4.6-1.9c3,0.6,9.3,1.2,10.5,0.8c0.5-0.1,1.7-0.2,2.7-0.3c1.1,0,3-0.5,4.7-1.2c1.5-0.6,3.5-1.2,4.2-1.1
		c0.7,0,3.5,0,6.1-0.2c4.4-0.1,4.9-0.2,6.6-1.2c1-0.5,2.5-1.6,3.4-2.3c0.9-0.8,1.8-1.4,2.1-1.2c0.3,0.1,0.6-0.1,0.7-0.5
		c0.3-0.7,1.4-1.4,2.6-1.6c0.5-0.1,0.8-0.6,1.2-2c0.5-2.4,1.4-4,2-4c0.4,0,1.2-0.5,1.8-1.1c1.4-1.2,2.8-1.8,3.3-1.5
		c0.2,0.1,1.5-0.5,3-1.3c1.4-0.8,3.4-1.5,4.3-1.7c0.9-0.2,2.2-0.5,2.9-1c1.1-0.6,1.4-0.6,2-0.2c1.8,1.1,8.6,1.7,10.3,0.9
		c1.9-0.8,4.8-5.8,5.5-9.4c0.2-0.9,0.1-1.3-0.6-2c-0.8-0.7-0.9-1-0.5-1.8c0.3-0.6,0.8-1,1.5-1c0.6-0.1,1.4-0.4,1.6-0.6
		c0.3-0.3,1-0.7,1.6-0.9c0.9-0.4,1.2-0.3,1.5,0.2c0.3,0.4,0.5,1.2,0.5,1.9c0,1.1,0.1,1.2,0.9,1.2c0.5,0,0.9-0.2,0.9-0.4
		c0-0.2,0.5-0.4,1-0.3c1.5,0.1,4.2-1.3,5.3-2.7c0.5-0.7,2.1-2.3,3.4-3.4c2.1-1.8,2.5-2,2.8-1.5c0.4,0.5,0.7,0.4,2.7-1.2
		c1.3-1,3-2.5,3.7-3.4c0.8-1,2.3-2.2,3.5-2.8c1.5-0.8,3.3-2.4,6.4-5.8c6.1-6.5,8.7-11.3,10.3-18.5l0.6-3.1l-0.8-0.8
		c-0.8-0.8-0.8-1.8,0.2-3.7c0.5-1,1-1,1.4-0.1c0.2,0.4,0.4,0.5,0.4,0.2c0-0.3-0.4-0.7-0.7-1.1c-1.3-1.1-0.9-2.2,1.1-3.6
		c1.8-1.3,2.7-3,3.5-6.2c0.1-0.5,0.4-1,0.5-1.1c0.7-0.5,98.5,12.6,99,13.1c0.2,0.3,1.4,0.5,3,0.5c3.1,0,4.5,0.8,5.3,3
		c0.3,0.8,0.8,1.8,1.3,2.3c0.6,0.7,0.7,1.2,0.5,4c-0.2,3-0.4,3.3-1.5,4.8c-1.4,1.6-2.5,2-4.3,1.3c-1.4-0.5-2.8,0-3.7,1.4
		c-0.9,1.4-0.9,1.4-0.4,2.7c1,2.2,0.8,6.1-0.4,9.4c-1,2.8-1,2.9-0.4,3.6c0.4,0.5,1,0.8,1.3,0.8c0.7,0,1.5,1.1,1.5,2
		c0,0.4,0.8,2,1.7,3.5c1.6,2.7,1.7,2.8,1.5,5.4c-0.1,2.3-0.1,2.7,0.5,3.1c0.9,0.5,0.9,1.5,0,4.2c-0.8,2.3-1,4.2-0.4,4.2
		c0.5,0,0.5,1.5-0.2,2.7c-0.7,1.4-0.7,1.4,0.7,3c0.9,1,1.4,2,1.7,3.4c0.3,1.2,0.5,2.3,0.5,2.5c0.1,0.2,1,0.8,2,1.4
		c2.4,1.2,6,3.9,6,4.3c0,0.2,0.7,1.3,1.6,2.3c0.9,1.1,1.6,2.3,1.6,2.6c0,1.2-1.8,3.1-5.3,5.5c-2.3,1.5-3.7,2.3-4.3,2.3
		c-0.8-0.1-0.8,0-0.7,1.5c0.1,1.4-0.2,2.2-1.5,4.6c-0.9,1.6-1.8,3.7-2.1,4.6c-0.4,1.4-0.8,1.8-2.2,2.7c-1,0.6-2.4,2.2-3.6,3.7
		l-1.9,2.6v3.1c-0.1,2.3-0.2,3.3-0.7,3.9c-0.4,0.5-9.7,8.9-20.7,18.7c-11,9.9-40.9,36.7-66.3,59.7c-25.4,23-59.8,53.8-76.4,68.7
		c-16.5,14.8-34.4,30.9-39.8,35.8l-9.7,8.9v5.9c0,3.3,0,27.3,0.1,53.4c0,26.1,0.1,56.9,0.1,68.2v20.6l-23.3,0.3
		c-21.8,0.3-86.9,2.2-115.7,3.3c-7,0.3-12.9,0.5-13.2,0.5C79.7,12786.6,79.7,12786.2,79.8,12785.1z M81.1,12729.2
		c0.5-0.4,0.4-0.5-0.7-1.4c-1.7-1.4-1.9-1.4-1,0.4C80.2,12729.7,80.3,12729.8,81.1,12729.2z M77.7,12724.9c-0.3-0.6-0.6-1.4-0.8-2
		c-0.1-0.6-0.4-1-0.6-1c-0.3,0-0.4,0.4-0.2,0.8c0.2,0.5,0.3,1.2,0.3,1.5c0,0.4,0.4,0.9,0.8,1.2
		C78.2,12726.1,78.2,12726.1,77.7,12724.9z M120.1,12596.9c1.4-2.2,2.4-4.3,2.4-4.3c-0.2,0-2.5,3.3-3.3,4.7
		C118.7,12598.1,119.7,12597.7,120.1,12596.9z M144,12595.3c0.5-0.5,0.5-0.5-0.3-0.2c-0.9,0.5-1.1,0.8-0.5,0.8
		C143.4,12595.9,143.7,12595.7,144,12595.3z M145,12592.9c0-0.2-0.1-0.2-0.4-0.1c-0.2,0.1-0.4,0.6-0.4,1c0,0.8,0,0.8,0.4,0.1
		C144.8,12593.5,145,12593,145,12592.9z M166.8,12591.1c-0.8-1.5-2-2.4-2.7-2.1c-0.3,0.1-0.2,0.2,0.2,0.2c0.4,0,0.9,0.5,1.2,1
		c0.3,0.5,0.8,1.4,1.2,1.9C167.4,12593.6,167.6,12592.9,166.8,12591.1z M171.7,12590c0.4-0.6,0.1-0.6-0.7-0.1
		c-0.6,0.5-0.6,0.5-0.2,0.5C171.1,12590.4,171.6,12590.2,171.7,12590z M175.4,12587.1c0.5-0.5,0.9-1.1,0.9-1.4
		c0-0.4-0.9,0.5-1.7,1.7c0,0-0.5,0.2-0.9,0.3c-0.5,0.1-1.1,0.4-1.4,0.7C171.3,12589.3,174.3,12588.1,175.4,12587.1z M167.6,12587.8
		c-0.1-0.2-0.4-0.4-0.6-0.4c-0.2,0-0.3,0.2-0.2,0.4s0.4,0.4,0.6,0.4C167.7,12588.2,167.7,12588.1,167.6,12587.8z M163,12523.2
		c0-0.2-0.2-0.3-0.4-0.2s-0.4,0.4-0.4,0.6c0,0.2,0.2,0.3,0.4,0.2C162.9,12523.6,163,12523.4,163,12523.2z M348.7,12323.2
		c0.5-1,0.9-2.2,0.9-2.5c0-0.5-0.5,0.2-1.3,1.6c-1.4,2.7-2.1,3.4-3,3.2c-0.5-0.2-0.5-0.2-0.2,0.4
		C345.9,12326.6,347.6,12325.4,348.7,12323.2z"/>
	<path class="st0" d="M238.7,12392.7c0-0.4,0.4-1,0.9-1.4c0.7-0.5,0.8-0.7,0.6-1.3c-0.3-0.5-0.1-0.8,0.7-1.6c0.8-0.8,1.5-1,4-1.2
		c2.5-0.2,3.1-0.1,4,0.5c0.6,0.4,2.1,0.9,3.6,1.1c1.4,0.2,2.8,0.7,2.9,0.9c0.7,0.9,0.4,1.7-0.7,2.1c-1.5,0.7-2.3,0.6-3.2-0.5
		c-1-1.2-1.3-1.2-3.5,0.2c-1.5,1-2.1,1.2-3.3,1c-0.8-0.1-1.8,0-2.3,0.4c-0.5,0.3-1.6,0.5-2.3,0.6
		C239,12393.4,238.7,12393.3,238.7,12392.7z"/>
	<path class="st0" d="M219.2,12392.6c-2.7-0.9-2.8-2-0.1-2.5c1-0.2,2.5-0.3,3.3-0.2c1,0.2,1.2,0.4,1.1,1c-0.1,0.5-0.4,0.8-0.9,0.9
		c-0.5,0.1-1,0.4-1.2,0.7C220.7,12393.2,220.7,12393.2,219.2,12392.6z"/>
	<path class="st0" d="M233.4,12391.4c-0.4-0.4-0.8-0.6-1.8-0.4c-0.9,0.2-1.5,0.1-2-0.4s-1.1-0.6-2.2-0.4c-1,0.2-1.6,0.1-2-0.3
		c-0.4-0.5-0.1-0.8,1.1-2c0.8-0.8,1.6-1.7,1.6-2c0-0.2,0.7-0.8,1.5-1.3l1.5-0.9l3.3,1.4c3.3,1.4,3.7,2,2.8,3.3
		c-0.3,0.4-0.8,0.7-1.2,0.7c-0.6,0.1-0.8,0.5-0.9,1.4C234.7,12391.9,234.1,12392.2,233.4,12391.4z"/>
	<path class="st0" d="M294.9,12363.7c-1-0.3-0.8-1.9,0.2-2.5c0.5-0.3,1.3-0.5,1.9-0.4c1,0.2,2.3-0.9,2.2-2c-0.1-2.2,0-2.9,0.4-3.3
		c0.2-0.3,1.9-0.8,3.6-1.2c3.1-0.7,3.3-0.7,4,0c1,0.9,0.9,1.3-0.4,2.6c-0.7,0.7-1.4,1.6-1.7,2.1c-0.6,1.1-3.7,3-5.1,3
		c-0.4,0-1.3,0.4-2,0.9C296.8,12364,296.2,12364.1,294.9,12363.7z"/>
	<path class="st0" d="M254.3,12353c-1-0.4-1.1-1.4-0.4-2.4c0.7-1,4.6-2.1,5.8-1.8c1.8,0.7,1.2,1.7-1.8,3.3
		C255.6,12353.5,255.5,12353.5,254.3,12353z"/>
	<path class="st0" d="M294.3,12341c-0.7-0.5-0.2-1.5,0.7-1.7c0.7-0.2,0.7-0.5,0.7-1.4c-0.3-1.6,1.1-4.1,3.8-6.9
		c2-2.1,3.1-2.6,3.6-1.8c0.1,0.2,0.7,0.3,1.1,0.2c0.7-0.2,1-0.1,1.2,0.4c0.2,0.7-4,5.2-5.2,5.7c-0.4,0.1-1,0.9-1.5,1.8
		C297,12340.5,295.6,12341.8,294.3,12341z"/>
</g>
</svg>
